<svg id="Layer_1" data-name="Layer 1" xmlns="http://www.w3.org/2000/svg" viewBox="0 0 404.98 351.12"><defs><style>.cls-1{fill:none;stroke:#fff;stroke-miterlimit:10;stroke-width:0.5px;opacity:0.25;}</style></defs><title>hex-stat-block-bg</title><polygon class="cls-1" points="76.2 263.22 25.59 263.22 0.29 307.04 25.59 350.87 76.2 350.87 101.5 307.04 76.2 263.22"/><polygon class="cls-1" points="76.2 175.56 25.59 175.56 0.29 219.39 25.59 263.22 76.2 263.22 101.5 219.39 76.2 175.56"/><polygon class="cls-1" points="76.2 87.91 25.59 87.91 0.29 131.73 25.59 175.56 76.2 175.56 101.5 131.73 76.2 87.91"/><polygon class="cls-1" points="76.2 0.25 25.59 0.25 0.29 44.08 25.59 87.91 76.2 87.91 101.5 44.08 76.2 0.25"/><polygon class="cls-1" points="151.53 219.39 100.92 219.39 75.62 263.22 100.92 307.04 151.53 307.04 176.83 263.22 151.53 219.39"/><polygon class="cls-1" points="151.53 44.08 100.92 44.08 75.62 87.91 100.92 131.73 151.53 131.73 176.83 87.91 151.53 44.08"/><polygon class="cls-1" points="227.79 263.22 177.18 263.22 151.88 307.04 177.18 350.87 227.79 350.87 253.1 307.04 227.79 263.22"/><polygon class="cls-1" points="227.79 175.56 177.18 175.56 151.88 219.39 177.18 263.22 227.79 263.22 253.1 219.39 227.79 175.56"/><polygon class="cls-1" points="227.79 87.91 177.18 87.91 151.88 131.73 177.18 175.56 227.79 175.56 253.1 131.73 227.79 87.91"/><polygon class="cls-1" points="227.79 0.25 177.18 0.25 151.88 44.08 177.18 87.91 227.79 87.91 253.1 44.08 227.79 0.25"/><polygon class="cls-1" points="303.12 131.73 252.51 131.73 227.21 175.56 252.51 219.39 303.12 219.39 328.42 175.56 303.12 131.73"/><polygon class="cls-1" points="303.12 44.08 252.51 44.08 227.21 87.91 252.51 131.73 303.12 131.73 328.42 87.91 303.12 44.08"/><polygon class="cls-1" points="379.38 87.91 328.78 87.91 303.47 131.73 328.78 175.56 379.38 175.56 404.69 131.73 379.38 87.91"/><polygon class="cls-1" points="379.38 0.25 328.78 0.25 303.47 44.08 328.78 87.91 379.38 87.91 404.69 44.08 379.38 0.25"/></svg>