<svg id="Layer_1" data-name="Layer 1" xmlns="http://www.w3.org/2000/svg" viewBox="0 0 569.3 427.21"><defs><style>.cls-1{fill:none;stroke:#000;stroke-miterlimit:10;stroke-width:0.5px;opacity:0.05;}</style></defs><title>honey-comb-corner-pattern</title><polygon class="cls-1" points="25.77 397.53 8.78 397.53 0.29 412.24 8.78 426.96 25.77 426.96 34.27 412.24 25.77 397.53"/><polygon class="cls-1" points="25.77 368.1 8.78 368.1 0.29 382.81 8.78 397.53 25.77 397.53 34.27 382.81 25.77 368.1"/><polygon class="cls-1" points="25.77 338.67 8.78 338.67 0.29 353.39 8.78 368.1 25.77 368.1 34.27 353.39 25.77 338.67"/><polygon class="cls-1" points="25.77 309.25 8.78 309.25 0.29 323.96 8.78 338.67 25.77 338.67 34.27 323.96 25.77 309.25"/><polygon class="cls-1" points="25.77 279.82 8.78 279.82 0.29 294.53 8.78 309.25 25.77 309.25 34.27 294.53 25.77 279.82"/><polygon class="cls-1" points="25.77 250.39 8.78 250.39 0.29 265.1 8.78 279.82 25.77 279.82 34.27 265.1 25.77 250.39"/><polygon class="cls-1" points="25.77 220.96 8.78 220.96 0.29 235.67 8.78 250.39 25.77 250.39 34.27 235.67 25.77 220.96"/><polygon class="cls-1" points="25.77 191.53 8.78 191.53 0.29 206.25 8.78 220.96 25.77 220.96 34.27 206.25 25.77 191.53"/><polygon class="cls-1" points="25.77 162.1 8.78 162.1 0.29 176.82 8.78 191.53 25.77 191.53 34.27 176.82 25.77 162.1"/><polygon class="cls-1" points="25.77 132.68 8.78 132.68 0.29 147.39 8.78 162.1 25.77 162.1 34.27 147.39 25.77 132.68"/><polygon class="cls-1" points="25.77 103.25 8.78 103.25 0.29 117.96 8.78 132.68 25.77 132.68 34.27 117.96 25.77 103.25"/><polygon class="cls-1" points="25.77 73.82 8.78 73.82 0.29 88.53 8.78 103.25 25.77 103.25 34.27 88.53 25.77 73.82"/><polygon class="cls-1" points="25.77 44.39 8.78 44.39 0.29 59.11 8.78 73.82 25.77 73.82 34.27 59.11 25.77 44.39"/><polygon class="cls-1" points="25.77 14.96 8.78 14.96 0.29 29.68 8.78 44.39 25.77 44.39 34.27 29.68 25.77 14.96"/><polygon class="cls-1" points="51.38 382.81 34.39 382.81 25.89 397.53 34.39 412.24 51.38 412.24 59.87 397.53 51.38 382.81"/><polygon class="cls-1" points="51.38 353.39 34.39 353.39 25.89 368.1 34.39 382.81 51.38 382.81 59.87 368.1 51.38 353.39"/><polygon class="cls-1" points="51.38 323.96 34.39 323.96 25.89 338.67 34.39 353.39 51.38 353.39 59.87 338.67 51.38 323.96"/><polygon class="cls-1" points="51.38 294.53 34.39 294.53 25.89 309.25 34.39 323.96 51.38 323.96 59.87 309.25 51.38 294.53"/><polygon class="cls-1" points="51.38 265.1 34.39 265.1 25.89 279.82 34.39 294.53 51.38 294.53 59.87 279.82 51.38 265.1"/><polygon class="cls-1" points="51.38 235.67 34.39 235.67 25.89 250.39 34.39 265.1 51.38 265.1 59.87 250.39 51.38 235.67"/><polygon class="cls-1" points="51.38 206.25 34.39 206.25 25.89 220.96 34.39 235.67 51.38 235.67 59.87 220.96 51.38 206.25"/><polygon class="cls-1" points="51.38 176.82 34.39 176.82 25.89 191.53 34.39 206.25 51.38 206.25 59.87 191.53 51.38 176.82"/><polygon class="cls-1" points="51.38 147.39 34.39 147.39 25.89 162.1 34.39 176.82 51.38 176.82 59.87 162.1 51.38 147.39"/><polygon class="cls-1" points="51.38 117.96 34.39 117.96 25.89 132.68 34.39 147.39 51.38 147.39 59.87 132.68 51.38 117.96"/><polygon class="cls-1" points="51.38 88.53 34.39 88.53 25.89 103.25 34.39 117.96 51.38 117.96 59.87 103.25 51.38 88.53"/><polygon class="cls-1" points="51.38 59.11 34.39 59.11 25.89 73.82 34.39 88.53 51.38 88.53 59.87 73.82 51.38 59.11"/><polygon class="cls-1" points="51.38 29.68 34.39 29.68 25.89 44.39 34.39 59.11 51.38 59.11 59.87 44.39 51.38 29.68"/><polygon class="cls-1" points="51.38 0.25 34.39 0.25 25.89 14.96 34.39 29.68 51.38 29.68 59.87 14.96 51.38 0.25"/><polygon class="cls-1" points="76.67 397.53 59.68 397.53 51.18 412.24 59.68 426.96 76.67 426.96 85.16 412.24 76.67 397.53"/><polygon class="cls-1" points="76.67 368.1 59.68 368.1 51.18 382.81 59.68 397.53 76.67 397.53 85.16 382.81 76.67 368.1"/><polygon class="cls-1" points="76.67 338.67 59.68 338.67 51.18 353.39 59.68 368.1 76.67 368.1 85.16 353.39 76.67 338.67"/><polygon class="cls-1" points="76.67 309.25 59.68 309.25 51.18 323.96 59.68 338.67 76.67 338.67 85.16 323.96 76.67 309.25"/><polygon class="cls-1" points="76.67 279.82 59.68 279.82 51.18 294.53 59.68 309.25 76.67 309.25 85.16 294.53 76.67 279.82"/><polygon class="cls-1" points="76.67 250.39 59.68 250.39 51.18 265.1 59.68 279.82 76.67 279.82 85.16 265.1 76.67 250.39"/><polygon class="cls-1" points="76.67 220.96 59.68 220.96 51.18 235.67 59.68 250.39 76.67 250.39 85.16 235.67 76.67 220.96"/><polygon class="cls-1" points="76.67 191.53 59.68 191.53 51.18 206.25 59.68 220.96 76.67 220.96 85.16 206.25 76.67 191.53"/><polygon class="cls-1" points="76.67 162.1 59.68 162.1 51.18 176.82 59.68 191.53 76.67 191.53 85.16 176.82 76.67 162.1"/><polygon class="cls-1" points="76.67 132.68 59.68 132.68 51.18 147.39 59.68 162.1 76.67 162.1 85.16 147.39 76.67 132.68"/><polygon class="cls-1" points="76.67 103.25 59.68 103.25 51.18 117.96 59.68 132.68 76.67 132.68 85.16 117.96 76.67 103.25"/><polygon class="cls-1" points="76.67 73.82 59.68 73.82 51.18 88.53 59.68 103.25 76.67 103.25 85.16 88.53 76.67 73.82"/><polygon class="cls-1" points="76.67 44.39 59.68 44.39 51.18 59.11 59.68 73.82 76.67 73.82 85.16 59.11 76.67 44.39"/><polygon class="cls-1" points="76.67 14.96 59.68 14.96 51.18 29.68 59.68 44.39 76.67 44.39 85.16 29.68 76.67 14.96"/><polygon class="cls-1" points="102.27 382.81 85.28 382.81 76.79 397.53 85.28 412.24 102.27 412.24 110.77 397.53 102.27 382.81"/><polygon class="cls-1" points="102.27 353.39 85.28 353.39 76.79 368.1 85.28 382.81 102.27 382.81 110.77 368.1 102.27 353.39"/><polygon class="cls-1" points="102.27 323.96 85.28 323.96 76.79 338.67 85.28 353.39 102.27 353.39 110.77 338.67 102.27 323.96"/><polygon class="cls-1" points="102.27 294.53 85.28 294.53 76.79 309.25 85.28 323.96 102.27 323.96 110.77 309.25 102.27 294.53"/><polygon class="cls-1" points="102.27 265.1 85.28 265.1 76.79 279.82 85.28 294.53 102.27 294.53 110.77 279.82 102.27 265.1"/><polygon class="cls-1" points="102.27 235.67 85.28 235.67 76.79 250.39 85.28 265.1 102.27 265.1 110.77 250.39 102.27 235.67"/><polygon class="cls-1" points="102.27 206.25 85.28 206.25 76.79 220.96 85.28 235.67 102.27 235.67 110.77 220.96 102.27 206.25"/><polygon class="cls-1" points="102.27 176.82 85.28 176.82 76.79 191.53 85.28 206.25 102.27 206.25 110.77 191.53 102.27 176.82"/><polygon class="cls-1" points="102.27 147.39 85.28 147.39 76.79 162.1 85.28 176.82 102.27 176.82 110.77 162.1 102.27 147.39"/><polygon class="cls-1" points="102.27 117.96 85.28 117.96 76.79 132.68 85.28 147.39 102.27 147.39 110.77 132.68 102.27 117.96"/><polygon class="cls-1" points="102.27 88.53 85.28 88.53 76.79 103.25 85.28 117.96 102.27 117.96 110.77 103.25 102.27 88.53"/><polygon class="cls-1" points="102.27 59.11 85.28 59.11 76.79 73.82 85.28 88.53 102.27 88.53 110.77 73.82 102.27 59.11"/><polygon class="cls-1" points="102.27 29.68 85.28 29.68 76.79 44.39 85.28 59.11 102.27 59.11 110.77 44.39 102.27 29.68"/><polygon class="cls-1" points="102.27 0.25 85.28 0.25 76.79 14.96 85.28 29.68 102.27 29.68 110.77 14.96 102.27 0.25"/><polygon class="cls-1" points="127.56 397.53 110.57 397.53 102.08 412.24 110.57 426.96 127.56 426.96 136.06 412.24 127.56 397.53"/><polygon class="cls-1" points="127.56 368.1 110.57 368.1 102.08 382.81 110.57 397.53 127.56 397.53 136.06 382.81 127.56 368.1"/><polygon class="cls-1" points="127.56 338.67 110.57 338.67 102.08 353.39 110.57 368.1 127.56 368.1 136.06 353.39 127.56 338.67"/><polygon class="cls-1" points="127.56 309.25 110.57 309.25 102.08 323.96 110.57 338.67 127.56 338.67 136.06 323.96 127.56 309.25"/><polygon class="cls-1" points="127.56 279.82 110.57 279.82 102.08 294.53 110.57 309.25 127.56 309.25 136.06 294.53 127.56 279.82"/><polygon class="cls-1" points="127.56 250.39 110.57 250.39 102.08 265.1 110.57 279.82 127.56 279.82 136.06 265.1 127.56 250.39"/><polygon class="cls-1" points="127.56 220.96 110.57 220.96 102.08 235.67 110.57 250.39 127.56 250.39 136.06 235.67 127.56 220.96"/><polygon class="cls-1" points="127.56 191.53 110.57 191.53 102.08 206.25 110.57 220.96 127.56 220.96 136.06 206.25 127.56 191.53"/><polygon class="cls-1" points="127.56 162.1 110.57 162.1 102.08 176.82 110.57 191.53 127.56 191.53 136.06 176.82 127.56 162.1"/><polygon class="cls-1" points="127.56 132.68 110.57 132.68 102.08 147.39 110.57 162.1 127.56 162.1 136.06 147.39 127.56 132.68"/><polygon class="cls-1" points="127.56 103.25 110.57 103.25 102.08 117.96 110.57 132.68 127.56 132.68 136.06 117.96 127.56 103.25"/><polygon class="cls-1" points="127.56 73.82 110.57 73.82 102.08 88.53 110.57 103.25 127.56 103.25 136.06 88.53 127.56 73.82"/><polygon class="cls-1" points="127.56 44.39 110.57 44.39 102.08 59.11 110.57 73.82 127.56 73.82 136.06 59.11 127.56 44.39"/><polygon class="cls-1" points="127.56 14.96 110.57 14.96 102.08 29.68 110.57 44.39 127.56 44.39 136.06 29.68 127.56 14.96"/><polygon class="cls-1" points="153.16 382.81 136.17 382.81 127.68 397.53 136.17 412.24 153.16 412.24 161.66 397.53 153.16 382.81"/><polygon class="cls-1" points="153.16 353.39 136.17 353.39 127.68 368.1 136.17 382.81 153.16 382.81 161.66 368.1 153.16 353.39"/><polygon class="cls-1" points="153.16 323.96 136.17 323.96 127.68 338.67 136.17 353.39 153.16 353.39 161.66 338.67 153.16 323.96"/><polygon class="cls-1" points="153.16 294.53 136.17 294.53 127.68 309.25 136.17 323.96 153.16 323.96 161.66 309.25 153.16 294.53"/><polygon class="cls-1" points="153.16 265.1 136.17 265.1 127.68 279.82 136.17 294.53 153.16 294.53 161.66 279.82 153.16 265.1"/><polygon class="cls-1" points="153.16 235.67 136.17 235.67 127.68 250.39 136.17 265.1 153.16 265.1 161.66 250.39 153.16 235.67"/><polygon class="cls-1" points="153.16 206.25 136.17 206.25 127.68 220.96 136.17 235.67 153.16 235.67 161.66 220.96 153.16 206.25"/><polygon class="cls-1" points="153.16 176.82 136.17 176.82 127.68 191.53 136.17 206.25 153.16 206.25 161.66 191.53 153.16 176.82"/><polygon class="cls-1" points="153.16 147.39 136.17 147.39 127.68 162.1 136.17 176.82 153.16 176.82 161.66 162.1 153.16 147.39"/><polygon class="cls-1" points="153.16 117.96 136.17 117.96 127.68 132.68 136.17 147.39 153.16 147.39 161.66 132.68 153.16 117.96"/><polygon class="cls-1" points="153.16 88.53 136.17 88.53 127.68 103.25 136.17 117.96 153.16 117.96 161.66 103.25 153.16 88.53"/><polygon class="cls-1" points="153.16 59.11 136.17 59.11 127.68 73.82 136.17 88.53 153.16 88.53 161.66 73.82 153.16 59.11"/><polygon class="cls-1" points="153.16 29.68 136.17 29.68 127.68 44.39 136.17 59.11 153.16 59.11 161.66 44.39 153.16 29.68"/><polygon class="cls-1" points="153.16 0.25 136.17 0.25 127.68 14.96 136.17 29.68 153.16 29.68 161.66 14.96 153.16 0.25"/><polygon class="cls-1" points="178.45 397.53 161.46 397.53 152.97 412.24 161.46 426.96 178.45 426.96 186.95 412.24 178.45 397.53"/><polygon class="cls-1" points="178.45 368.1 161.46 368.1 152.97 382.81 161.46 397.53 178.45 397.53 186.95 382.81 178.45 368.1"/><polygon class="cls-1" points="178.45 338.67 161.46 338.67 152.97 353.39 161.46 368.1 178.45 368.1 186.95 353.39 178.45 338.67"/><polygon class="cls-1" points="178.45 309.25 161.46 309.25 152.97 323.96 161.46 338.67 178.45 338.67 186.95 323.96 178.45 309.25"/><polygon class="cls-1" points="178.45 279.82 161.46 279.82 152.97 294.53 161.46 309.25 178.45 309.25 186.95 294.53 178.45 279.82"/><polygon class="cls-1" points="178.45 250.39 161.46 250.39 152.97 265.1 161.46 279.82 178.45 279.82 186.95 265.1 178.45 250.39"/><polygon class="cls-1" points="178.45 220.96 161.46 220.96 152.97 235.67 161.46 250.39 178.45 250.39 186.95 235.67 178.45 220.96"/><polygon class="cls-1" points="178.45 191.53 161.46 191.53 152.97 206.25 161.46 220.96 178.45 220.96 186.95 206.25 178.45 191.53"/><polygon class="cls-1" points="178.45 162.1 161.46 162.1 152.97 176.82 161.46 191.53 178.45 191.53 186.95 176.82 178.45 162.1"/><polygon class="cls-1" points="178.45 132.68 161.46 132.68 152.97 147.39 161.46 162.1 178.45 162.1 186.95 147.39 178.45 132.68"/><polygon class="cls-1" points="178.45 103.25 161.46 103.25 152.97 117.96 161.46 132.68 178.45 132.68 186.95 117.96 178.45 103.25"/><polygon class="cls-1" points="178.45 73.82 161.46 73.82 152.97 88.53 161.46 103.25 178.45 103.25 186.95 88.53 178.45 73.82"/><polygon class="cls-1" points="178.45 44.39 161.46 44.39 152.97 59.11 161.46 73.82 178.45 73.82 186.95 59.11 178.45 44.39"/><polygon class="cls-1" points="178.45 14.96 161.46 14.96 152.97 29.68 161.46 44.39 178.45 44.39 186.95 29.68 178.45 14.96"/><polygon class="cls-1" points="204.06 353.39 187.07 353.39 178.57 368.1 187.07 382.81 204.06 382.81 212.55 368.1 204.06 353.39"/><polygon class="cls-1" points="204.06 265.1 187.07 265.1 178.57 279.82 187.07 294.53 204.06 294.53 212.55 279.82 204.06 265.1"/><polygon class="cls-1" points="204.06 235.67 187.07 235.67 178.57 250.39 187.07 265.1 204.06 265.1 212.55 250.39 204.06 235.67"/><polygon class="cls-1" points="204.06 206.25 187.07 206.25 178.57 220.96 187.07 235.67 204.06 235.67 212.55 220.96 204.06 206.25"/><polygon class="cls-1" points="204.06 176.82 187.07 176.82 178.57 191.53 187.07 206.25 204.06 206.25 212.55 191.53 204.06 176.82"/><polygon class="cls-1" points="204.06 147.39 187.07 147.39 178.57 162.1 187.07 176.82 204.06 176.82 212.55 162.1 204.06 147.39"/><polygon class="cls-1" points="204.06 117.96 187.07 117.96 178.57 132.68 187.07 147.39 204.06 147.39 212.55 132.68 204.06 117.96"/><polygon class="cls-1" points="204.06 88.53 187.07 88.53 178.57 103.25 187.07 117.96 204.06 117.96 212.55 103.25 204.06 88.53"/><polygon class="cls-1" points="204.06 59.11 187.07 59.11 178.57 73.82 187.07 88.53 204.06 88.53 212.55 73.82 204.06 59.11"/><polygon class="cls-1" points="204.06 29.68 187.07 29.68 178.57 44.39 187.07 59.11 204.06 59.11 212.55 44.39 204.06 29.68"/><polygon class="cls-1" points="204.06 0.25 187.07 0.25 178.57 14.96 187.07 29.68 204.06 29.68 212.55 14.96 204.06 0.25"/><polygon class="cls-1" points="229.56 279.82 212.57 279.82 204.07 294.53 212.57 309.25 229.56 309.25 238.05 294.53 229.56 279.82"/><polygon class="cls-1" points="229.56 250.39 212.57 250.39 204.07 265.1 212.57 279.82 229.56 279.82 238.05 265.1 229.56 250.39"/><polygon class="cls-1" points="229.56 220.96 212.57 220.96 204.07 235.67 212.57 250.39 229.56 250.39 238.05 235.67 229.56 220.96"/><polygon class="cls-1" points="229.56 191.53 212.57 191.53 204.07 206.25 212.57 220.96 229.56 220.96 238.05 206.25 229.56 191.53"/><polygon class="cls-1" points="229.56 162.1 212.57 162.1 204.07 176.82 212.57 191.53 229.56 191.53 238.05 176.82 229.56 162.1"/><polygon class="cls-1" points="229.56 132.68 212.57 132.68 204.07 147.39 212.57 162.1 229.56 162.1 238.05 147.39 229.56 132.68"/><polygon class="cls-1" points="229.56 103.25 212.57 103.25 204.07 117.96 212.57 132.68 229.56 132.68 238.05 117.96 229.56 103.25"/><polygon class="cls-1" points="229.56 73.82 212.57 73.82 204.07 88.53 212.57 103.25 229.56 103.25 238.05 88.53 229.56 73.82"/><polygon class="cls-1" points="229.56 44.39 212.57 44.39 204.07 59.11 212.57 73.82 229.56 73.82 238.05 59.11 229.56 44.39"/><polygon class="cls-1" points="229.56 14.96 212.57 14.96 204.07 29.68 212.57 44.39 229.56 44.39 238.05 29.68 229.56 14.96"/><polygon class="cls-1" points="255.16 294.53 238.17 294.53 229.68 309.25 238.17 323.96 255.16 323.96 263.66 309.25 255.16 294.53"/><polygon class="cls-1" points="255.16 265.1 238.17 265.1 229.68 279.82 238.17 294.53 255.16 294.53 263.66 279.82 255.16 265.1"/><polygon class="cls-1" points="255.16 235.67 238.17 235.67 229.68 250.39 238.17 265.1 255.16 265.1 263.66 250.39 255.16 235.67"/><polygon class="cls-1" points="255.16 206.25 238.17 206.25 229.68 220.96 238.17 235.67 255.16 235.67 263.66 220.96 255.16 206.25"/><polygon class="cls-1" points="255.16 176.82 238.17 176.82 229.68 191.53 238.17 206.25 255.16 206.25 263.66 191.53 255.16 176.82"/><polygon class="cls-1" points="255.16 147.39 238.17 147.39 229.68 162.1 238.17 176.82 255.16 176.82 263.66 162.1 255.16 147.39"/><polygon class="cls-1" points="255.16 117.96 238.17 117.96 229.68 132.68 238.17 147.39 255.16 147.39 263.66 132.68 255.16 117.96"/><polygon class="cls-1" points="255.16 88.53 238.17 88.53 229.68 103.25 238.17 117.96 255.16 117.96 263.66 103.25 255.16 88.53"/><polygon class="cls-1" points="255.16 59.11 238.17 59.11 229.68 73.82 238.17 88.53 255.16 88.53 263.66 73.82 255.16 59.11"/><polygon class="cls-1" points="255.16 29.68 238.17 29.68 229.68 44.39 238.17 59.11 255.16 59.11 263.66 44.39 255.16 29.68"/><polygon class="cls-1" points="255.16 0.25 238.17 0.25 229.68 14.96 238.17 29.68 255.16 29.68 263.66 14.96 255.16 0.25"/><polygon class="cls-1" points="280.45 279.82 263.46 279.82 254.97 294.53 263.46 309.25 280.45 309.25 288.95 294.53 280.45 279.82"/><polygon class="cls-1" points="280.45 250.39 263.46 250.39 254.97 265.1 263.46 279.82 280.45 279.82 288.95 265.1 280.45 250.39"/><polygon class="cls-1" points="280.45 220.96 263.46 220.96 254.97 235.67 263.46 250.39 280.45 250.39 288.95 235.67 280.45 220.96"/><polygon class="cls-1" points="280.45 191.53 263.46 191.53 254.97 206.25 263.46 220.96 280.45 220.96 288.95 206.25 280.45 191.53"/><polygon class="cls-1" points="280.45 162.1 263.46 162.1 254.97 176.82 263.46 191.53 280.45 191.53 288.95 176.82 280.45 162.1"/><polygon class="cls-1" points="280.45 132.68 263.46 132.68 254.97 147.39 263.46 162.1 280.45 162.1 288.95 147.39 280.45 132.68"/><polygon class="cls-1" points="280.45 103.25 263.46 103.25 254.97 117.96 263.46 132.68 280.45 132.68 288.95 117.96 280.45 103.25"/><polygon class="cls-1" points="280.45 73.82 263.46 73.82 254.97 88.53 263.46 103.25 280.45 103.25 288.95 88.53 280.45 73.82"/><polygon class="cls-1" points="280.45 44.39 263.46 44.39 254.97 59.11 263.46 73.82 280.45 73.82 288.95 59.11 280.45 44.39"/><polygon class="cls-1" points="280.45 14.96 263.46 14.96 254.97 29.68 263.46 44.39 280.45 44.39 288.95 29.68 280.45 14.96"/><polygon class="cls-1" points="306.05 176.82 289.06 176.82 280.57 191.53 289.06 206.25 306.05 206.25 314.55 191.53 306.05 176.82"/><polygon class="cls-1" points="306.05 147.39 289.06 147.39 280.57 162.1 289.06 176.82 306.05 176.82 314.55 162.1 306.05 147.39"/><polygon class="cls-1" points="306.05 117.96 289.06 117.96 280.57 132.68 289.06 147.39 306.05 147.39 314.55 132.68 306.05 117.96"/><polygon class="cls-1" points="306.05 88.53 289.06 88.53 280.57 103.25 289.06 117.96 306.05 117.96 314.55 103.25 306.05 88.53"/><polygon class="cls-1" points="306.05 59.11 289.06 59.11 280.57 73.82 289.06 88.53 306.05 88.53 314.55 73.82 306.05 59.11"/><polygon class="cls-1" points="306.05 29.68 289.06 29.68 280.57 44.39 289.06 59.11 306.05 59.11 314.55 44.39 306.05 29.68"/><polygon class="cls-1" points="306.05 0.25 289.06 0.25 280.57 14.96 289.06 29.68 306.05 29.68 314.55 14.96 306.05 0.25"/><polygon class="cls-1" points="331.34 191.53 314.35 191.53 305.86 206.25 314.35 220.96 331.34 220.96 339.84 206.25 331.34 191.53"/><polygon class="cls-1" points="331.34 162.1 314.35 162.1 305.86 176.82 314.35 191.53 331.34 191.53 339.84 176.82 331.34 162.1"/><polygon class="cls-1" points="331.34 132.68 314.35 132.68 305.86 147.39 314.35 162.1 331.34 162.1 339.84 147.39 331.34 132.68"/><polygon class="cls-1" points="331.34 103.25 314.35 103.25 305.86 117.96 314.35 132.68 331.34 132.68 339.84 117.96 331.34 103.25"/><polygon class="cls-1" points="331.34 73.82 314.35 73.82 305.86 88.53 314.35 103.25 331.34 103.25 339.84 88.53 331.34 73.82"/><polygon class="cls-1" points="331.34 44.39 314.35 44.39 305.86 59.11 314.35 73.82 331.34 73.82 339.84 59.11 331.34 44.39"/><polygon class="cls-1" points="331.34 14.96 314.35 14.96 305.86 29.68 314.35 44.39 331.34 44.39 339.84 29.68 331.34 14.96"/><polygon class="cls-1" points="356.95 176.82 339.96 176.82 331.46 191.53 339.96 206.25 356.95 206.25 365.44 191.53 356.95 176.82"/><polygon class="cls-1" points="356.95 147.39 339.96 147.39 331.46 162.1 339.96 176.82 356.95 176.82 365.44 162.1 356.95 147.39"/><polygon class="cls-1" points="356.95 117.96 339.96 117.96 331.46 132.68 339.96 147.39 356.95 147.39 365.44 132.68 356.95 117.96"/><polygon class="cls-1" points="356.95 88.53 339.96 88.53 331.46 103.25 339.96 117.96 356.95 117.96 365.44 103.25 356.95 88.53"/><polygon class="cls-1" points="356.95 59.11 339.96 59.11 331.46 73.82 339.96 88.53 356.95 88.53 365.44 73.82 356.95 59.11"/><polygon class="cls-1" points="356.95 29.68 339.96 29.68 331.46 44.39 339.96 59.11 356.95 59.11 365.44 44.39 356.95 29.68"/><polygon class="cls-1" points="356.95 0.25 339.96 0.25 331.46 14.96 339.96 29.68 356.95 29.68 365.44 14.96 356.95 0.25"/><polygon class="cls-1" points="382.24 191.53 365.25 191.53 356.75 206.25 365.25 220.96 382.24 220.96 390.73 206.25 382.24 191.53"/><polygon class="cls-1" points="382.24 162.1 365.25 162.1 356.75 176.82 365.25 191.53 382.24 191.53 390.73 176.82 382.24 162.1"/><polygon class="cls-1" points="382.24 132.68 365.25 132.68 356.75 147.39 365.25 162.1 382.24 162.1 390.73 147.39 382.24 132.68"/><polygon class="cls-1" points="382.24 103.25 365.25 103.25 356.75 117.96 365.25 132.68 382.24 132.68 390.73 117.96 382.24 103.25"/><polygon class="cls-1" points="382.24 73.82 365.25 73.82 356.75 88.53 365.25 103.25 382.24 103.25 390.73 88.53 382.24 73.82"/><polygon class="cls-1" points="382.24 44.39 365.25 44.39 356.75 59.11 365.25 73.82 382.24 73.82 390.73 59.11 382.24 44.39"/><polygon class="cls-1" points="382.24 14.96 365.25 14.96 356.75 29.68 365.25 44.39 382.24 44.39 390.73 29.68 382.24 14.96"/><polygon class="cls-1" points="407.84 176.82 390.85 176.82 382.36 191.53 390.85 206.25 407.84 206.25 416.34 191.53 407.84 176.82"/><polygon class="cls-1" points="407.84 147.39 390.85 147.39 382.36 162.1 390.85 176.82 407.84 176.82 416.34 162.1 407.84 147.39"/><polygon class="cls-1" points="407.84 117.96 390.85 117.96 382.36 132.68 390.85 147.39 407.84 147.39 416.34 132.68 407.84 117.96"/><polygon class="cls-1" points="407.84 88.53 390.85 88.53 382.36 103.25 390.85 117.96 407.84 117.96 416.34 103.25 407.84 88.53"/><polygon class="cls-1" points="407.84 59.11 390.85 59.11 382.36 73.82 390.85 88.53 407.84 88.53 416.34 73.82 407.84 59.11"/><polygon class="cls-1" points="407.84 29.68 390.85 29.68 382.36 44.39 390.85 59.11 407.84 59.11 416.34 44.39 407.84 29.68"/><polygon class="cls-1" points="407.84 0.25 390.85 0.25 382.36 14.96 390.85 29.68 407.84 29.68 416.34 14.96 407.84 0.25"/><polygon class="cls-1" points="433.13 132.68 416.14 132.68 407.64 147.39 416.14 162.1 433.13 162.1 441.63 147.39 433.13 132.68"/><polygon class="cls-1" points="433.13 103.25 416.14 103.25 407.64 117.96 416.14 132.68 433.13 132.68 441.63 117.96 433.13 103.25"/><polygon class="cls-1" points="433.13 73.82 416.14 73.82 407.64 88.53 416.14 103.25 433.13 103.25 441.63 88.53 433.13 73.82"/><polygon class="cls-1" points="433.13 44.39 416.14 44.39 407.64 59.11 416.14 73.82 433.13 73.82 441.63 59.11 433.13 44.39"/><polygon class="cls-1" points="433.13 14.96 416.14 14.96 407.64 29.68 416.14 44.39 433.13 44.39 441.63 29.68 433.13 14.96"/><polygon class="cls-1" points="458.73 117.96 441.74 117.96 433.25 132.68 441.74 147.39 458.73 147.39 467.23 132.68 458.73 117.96"/><polygon class="cls-1" points="458.73 88.53 441.74 88.53 433.25 103.25 441.74 117.96 458.73 117.96 467.23 103.25 458.73 88.53"/><polygon class="cls-1" points="458.73 59.11 441.74 59.11 433.25 73.82 441.74 88.53 458.73 88.53 467.23 73.82 458.73 59.11"/><polygon class="cls-1" points="458.73 29.68 441.74 29.68 433.25 44.39 441.74 59.11 458.73 59.11 467.23 44.39 458.73 29.68"/><polygon class="cls-1" points="458.73 0.25 441.74 0.25 433.25 14.96 441.74 29.68 458.73 29.68 467.23 14.96 458.73 0.25"/><polygon class="cls-1" points="484.02 132.68 467.03 132.68 458.54 147.39 467.03 162.1 484.02 162.1 492.52 147.39 484.02 132.68"/><polygon class="cls-1" points="484.02 103.25 467.03 103.25 458.54 117.96 467.03 132.68 484.02 132.68 492.52 117.96 484.02 103.25"/><polygon class="cls-1" points="484.02 73.82 467.03 73.82 458.54 88.53 467.03 103.25 484.02 103.25 492.52 88.53 484.02 73.82"/><polygon class="cls-1" points="484.02 44.39 467.03 44.39 458.54 59.11 467.03 73.82 484.02 73.82 492.52 59.11 484.02 44.39"/><polygon class="cls-1" points="484.02 14.96 467.03 14.96 458.54 29.68 467.03 44.39 484.02 44.39 492.52 29.68 484.02 14.96"/><polygon class="cls-1" points="509.63 117.96 492.64 117.96 484.14 132.68 492.64 147.39 509.63 147.39 518.12 132.68 509.63 117.96"/><polygon class="cls-1" points="509.63 88.53 492.64 88.53 484.14 103.25 492.64 117.96 509.63 117.96 518.12 103.25 509.63 88.53"/><polygon class="cls-1" points="509.63 59.11 492.64 59.11 484.14 73.82 492.64 88.53 509.63 88.53 518.12 73.82 509.63 59.11"/><polygon class="cls-1" points="509.63 29.68 492.64 29.68 484.14 44.39 492.64 59.11 509.63 59.11 518.12 44.39 509.63 29.68"/><polygon class="cls-1" points="509.63 0.25 492.64 0.25 484.14 14.96 492.64 29.68 509.63 29.68 518.12 14.96 509.63 0.25"/><polygon class="cls-1" points="534.92 44.39 517.93 44.39 509.43 59.11 517.93 73.82 534.92 73.82 543.41 59.11 534.92 44.39"/><polygon class="cls-1" points="534.92 14.96 517.93 14.96 509.43 29.68 517.93 44.39 534.92 44.39 543.41 29.68 534.92 14.96"/><polygon class="cls-1" points="560.52 29.68 543.53 29.68 535.03 44.39 543.53 59.11 560.52 59.11 569.02 44.39 560.52 29.68"/><polygon class="cls-1" points="560.52 0.25 543.53 0.25 535.03 14.96 543.53 29.68 560.52 29.68 569.02 14.96 560.52 0.25"/></svg>