<svg id="Layer_1" data-name="Layer 1" xmlns="http://www.w3.org/2000/svg" viewBox="0 0 456.9 85.96"><defs><style>.cls-1{fill:#fff;}.cls-2{fill:#1e407c;}.cls-3{fill:#96bee6;}</style></defs><title>PSU_AGR_RGB_2C</title><path class="cls-1" d="M72.63,119.21C55.4,109,33.68,94.08,33.68,67.78V40c7.94-3,20.22-6.77,38.95-6.77,18.94,0,31.94,4.1,39,6.77V67.78C111.58,94.3,89,109.58,72.63,119.21Z" transform="translate(-33.68 -33.25)"/><path class="cls-2" d="M84.35,83.26c0-.59.48-1.5.48-2.32s-1.19-1.28-2.11-1.41c-2-.27-2.6-.18-2.6-.61s.26-.61.61-1.12a3.8,3.8,0,0,1,2.44-1.13,21.08,21.08,0,0,1,3-.24,16.48,16.48,0,0,1,2.92.29c1.19.2,1.38.7,1.38,1.26v.56c0,.57-.47.86-1.3,1l-.64.13c-.6.12-1.35.24-1.61,1-.57,1.63-1.56,2.92-2.3,2.88C84.49,83.6,84.35,83.5,84.35,83.26Zm1.72-26.38c-.07,0-.33-.13-.33-.38s.21-.59.64-1.15c1-1.31,2.31-2.91,2.8-2.91.24,0,.39.16.69.72a3.38,3.38,0,0,1,.32,1.42,7.32,7.32,0,0,1-1.52,4.34A12.92,12.92,0,0,0,86.07,56.88ZM57.45,60.13c.44,0,.77-.3,1.43-1,1.48-1.63,2.91-1.85,2.91-2.55a1.89,1.89,0,0,0-.41-.94c-1.57-2.47-2.25-3.8-3.19-5.59-.34-.65-.78-1.09-1.12-1.09-.55,0-1.12.63-1.46,1.18a5.15,5.15,0,0,0-.94,2.43,17.33,17.33,0,0,0,.79,4.76C56,58.8,56.77,60.13,57.45,60.13Zm17.78,5.69a3,3,0,0,0-3.14-2.51A3.86,3.86,0,0,0,68.6,65.7a3.63,3.63,0,0,0,2.54,2.21c.23.07.45.08.45.27s-.29.41-.89.41a4.38,4.38,0,0,1-3.59-1.46,13.05,13.05,0,0,1-1.8.29.79.79,0,0,1-.86-.9,2.65,2.65,0,0,1,.3-1.13c.11-.23.23-.47.32-.63a5.72,5.72,0,0,1,2.52-2.9l1-.6a5.06,5.06,0,0,1,2.94-.73h.87a3.87,3.87,0,0,1,2.78.93c1.27,1.07,2,1.66,2,2.45a3.54,3.54,0,0,1-.75,2.49,3.16,3.16,0,0,1-2.07,1.33c-.16,0-.21-.09-.21-.18s.13-.18.27-.3A3.33,3.33,0,0,0,75.23,65.82Zm8.56,27.31a16.29,16.29,0,0,1-3.91.24c-4.42,0-5.17-1.08-5.17-2C74.71,90,81.05,89,83.55,89S87,89.74,87,90.33,85.92,92.61,83.79,93.13Zm-25.5,12.94a139.9,139.9,0,0,0,14.34,9.64h0c0-4.33-.09-6.88,2.84-9.95,1.18-1.24,2.41-2.51,3.51-3.65.84-.86,1.51-1.51,1.9-1.51s.41.15.41.53a8.85,8.85,0,0,0,1,3.51,4.42,4.42,0,0,0,3.23,2.5c12.56-9.45,23.06-21.82,23.06-39.42V42.08c-3.1-1.06-15.82-5.93-36-5.93s-32.91,4.87-36,5.93V67.72A40.67,40.67,0,0,0,42,88.09c.33-3.56,2.74-5.25,2.74-8.75,0-2.44-.69-4-.69-6,0-3.7,5-11.3,7.58-14.4.08-.09.24-.31.45-.31a.54.54,0,0,1,.44.3c.26.41.38.62.66.62s.39-.16.39-.41a21.69,21.69,0,0,1-.74-5.92c0-2.94.68-3.56,2.51-5.35a4,4,0,0,1,2.33-1.31A3.08,3.08,0,0,1,60,47.85c1.13,1.15,2.7,3.19,3,3.51a.33.33,0,0,0,.29.17c.52,0,1-.16,3.22-.16,4.12,0,10.34.65,13.53,1.7a24.24,24.24,0,0,0,2.42.9c.21,0,.23-.13.23-.25s-.43-.54-.43-.82a.5.5,0,0,1,.3-.41c2.38-1.28,4.41-2.24,6.27-2.24,1.08,0,1.62.94,2.07,1.86a6.26,6.26,0,0,1,.74,2.69,8.28,8.28,0,0,1-1.73,5.14c.37.37.89.94,1.21,1.32a4.33,4.33,0,0,1,1.24,2.47,8.74,8.74,0,0,1-.3,1.51c0,.22-.25.67-.63.66s-.44-.39-.45-.72v-.26a3.86,3.86,0,0,0-3.26-3.76h-.3a3.27,3.27,0,0,0-2.55,1A2.46,2.46,0,0,0,84,64a5.08,5.08,0,0,0,.71,1.78c.24.47.85,1.61,1.18,2.19a1.19,1.19,0,0,0,1.08.69c1,0,1.92-.15,1.92-.45,0-.09,0-.16-.18-.16l-.33,0c-1.34,0-2.06-1.71-2.73-3.25a2.84,2.84,0,0,1,2.14-1A2.06,2.06,0,0,1,90,65.85a3,3,0,0,1-.29,1.28.66.66,0,0,0-.08.24c0,.18.23.22.6.3l.52.13a1.59,1.59,0,0,1,1,.93c.12.31.38,1,.44,1.21a8.4,8.4,0,0,1,.58,2.77,8.05,8.05,0,0,1-.4,2.72,16,16,0,0,0-.66,2.94,4.09,4.09,0,0,1,.22.49,5.71,5.71,0,0,1,.53,2.32V82a6,6,0,0,1-1.27,3.61c-.52.69-1.25,1.66-1.67,2.2a1.42,1.42,0,0,1-1,.57,3.42,3.42,0,0,1-.66-.12l-1-.27a2.1,2.1,0,0,1-1.52-1.6c0-.12-.18-.45-.22-.56-.21-.55-.33-.9-.67-.9s-.5.17-.76.55a4.06,4.06,0,0,1-3,2.22c-.55.14-1.67.37-2.29.51a21.51,21.51,0,0,1-3.59.65l-.63,0c-1.29-.18-2.21-.27-3.83-2.2-2.21-2.64-2-3-2.12-6.59,0-.4-.14-.9-.56-.9s-.53.76-.67,1.83c-.16,1.26-.45,2.58-1.07,2.58a4,4,0,0,1-1.39-.29l-3.87-1.29c-1.44-.47-2.82-.85-3.37-2.13-.26-.6-.75-1.71-1-2.29-.17-.41-.3-.62-.57-.62s-.47.45-.51.81S55,79.05,55,79.64a8,8,0,0,1-1.77,4.94c-.48.63-.94,1.28-1.48,2A8.41,8.41,0,0,0,50,92.37c0,.19,0,1.25,0,1.73C50.1,98.33,51.17,100.4,58.29,106.07Z" transform="translate(-33.68 -33.25)"/><path class="cls-3" d="M91.75,68.73h0c.12.31.38,1,.44,1.21a8.4,8.4,0,0,1,.58,2.77,8.05,8.05,0,0,1-.4,2.72,16,16,0,0,0-.66,2.94c-.12-.24-2.28-4-2.45-4.28a2,2,0,0,1-.3-1c0-.38.16-.61.62-.9.28-.18.64-.38.88-.51a2.13,2.13,0,0,0,1.39-2A6.52,6.52,0,0,0,91.75,68.73Zm-9.44,6a2.58,2.58,0,0,1,.22.88,1.24,1.24,0,0,1-.45,1.06l-.58.52a2.16,2.16,0,0,0-.77.63c-.35.51-.61.82-.61,1.12a.24.24,0,0,0,.1.21,1.55,1.55,0,0,1-.61-1.25c0-.39.13-.6.13-1a3,3,0,0,0-.14-.79c-.6-2-1.61-4.4-2.23-6s-1.14-2.56-1.86-2.56c-.4,0-.75.2-1.17.2a3.2,3.2,0,0,0,2.07-1.33,3.54,3.54,0,0,0,.75-2.49,1.68,1.68,0,0,0-.45-1.06,11.89,11.89,0,0,1,2.1,3.42C80.16,69.13,81.33,72.26,82.31,74.71ZM50,94.1c0-.48,0-1.54,0-1.73a8.41,8.41,0,0,1,1.73-5.8c.54-.71,1-1.36,1.48-2A8,8,0,0,0,55,79.64c.05-.59.15-1.52.2-1.93s.13-.81.51-.81.4.21.57.62c.24.58.73,1.69,1,2.29.55,1.28,1.93,1.66,3.37,2.13l3.87,1.29a4,4,0,0,0,1.39.29c.62,0,.91-1.32,1.07-2.58.14-1.07.3-1.83.67-1.83s.55.5.56.9c.13,3.57-.09,3.95,2.12,6.59,1.62,1.93,2.54,2,3.83,2.2A1.79,1.79,0,0,1,73,86.93V85.64a4.93,4.93,0,0,1,.4-2c.15-.34.32-1,.49-1.36A2.18,2.18,0,0,0,74.07,81a7.34,7.34,0,0,0-.55-2.14c-.2-.6-.47-1.48-.72-2.2C72,74.38,71.67,73.85,69,73.5l-5.41-.76c-3-.43-5.36-.57-6.59-2.59-1.47-2.41-1.32-5.34-2.73-5.34-.67,0-1,.74-1,1.83s.43,3,.43,6.23c0,2.79-.26,3.57-1.89,5.62-.42.54-1,1.32-1.35,1.78-1.21,1.51-1.74,2.37-1.67,4.14A60.54,60.54,0,0,0,50,94.1Zm30.69,10.77c.11-1.12.6-3,.6-3.74h0c0-.38-.13-.53-.41-.53s-1.06.65-1.9,1.51c-1.1,1.14-2.33,2.41-3.51,3.65-2.93,3.07-2.8,5.62-2.84,9.95h0c3.26-2,6.24-3.85,8.45-5.36A17.34,17.34,0,0,1,80.69,104.87Z" transform="translate(-33.68 -33.25)"/><path class="cls-2" d="M139.07,96.93a12.21,12.21,0,0,1-5,.9c-5.37,0-9.41-3.39-9.41-9.63,0-6,4-10,9.94-10a10.19,10.19,0,0,1,4.52.85l-.59,2a9,9,0,0,0-3.84-.79c-4.46,0-7.43,2.85-7.43,7.85,0,4.66,2.68,7.65,7.31,7.65a9.83,9.83,0,0,0,4-.79Zm15.05-6.33c0,5.06-3.5,7.26-6.81,7.26-3.69,0-6.55-2.71-6.55-7,0-4.57,3-7.26,6.78-7.26S154.12,86.43,154.12,90.6Zm-10.84.15c0,3,1.72,5.25,4.15,5.25s4.15-2.23,4.15-5.31c0-2.32-1.16-5.25-4.1-5.25S143.28,88.15,143.28,90.75Zm14-13.25h2.49v20h-2.49Zm6.66,0h2.49v20h-2.49ZM172,91.17c.06,3.36,2.2,4.74,4.69,4.74a9.05,9.05,0,0,0,3.78-.7l.43,1.78a11.24,11.24,0,0,1-4.55.84c-4.21,0-6.72-2.76-6.72-6.89S172,83.57,176,83.57c4.46,0,5.65,3.93,5.65,6.44a8.94,8.94,0,0,1-.09,1.16Zm7.29-1.78c0-1.58-.65-4-3.45-4-2.51,0-3.61,2.32-3.81,4Zm17.25-5.51c-.06,1-.12,2.09-.12,3.76v7.93c0,3.14-.62,5.06-1.94,6.24a7.22,7.22,0,0,1-5,1.64,8.77,8.77,0,0,1-4.55-1.13l.62-1.89a7.66,7.66,0,0,0,4,1.07c2.54,0,4.41-1.32,4.41-4.77V95.21h-.06a4.87,4.87,0,0,1-4.35,2.28c-3.39,0-5.82-2.88-5.82-6.66,0-4.63,3-7.26,6.16-7.26a4.55,4.55,0,0,1,4.26,2.37h.06l.11-2.06Zm-2.57,5.4a3.64,3.64,0,0,0-3.62-3.76c-2.37,0-4.06,2-4.06,5.17,0,2.68,1.35,4.91,4,4.91a3.64,3.64,0,0,0,3.45-2.54,4.34,4.34,0,0,0,.2-1.33Zm8,1.89c.05,3.36,2.2,4.74,4.68,4.74a9.11,9.11,0,0,0,3.79-.7l.42,1.78a11.15,11.15,0,0,1-4.54.84c-4.21,0-6.72-2.76-6.72-6.89s2.42-7.37,6.41-7.37c4.46,0,5.64,3.93,5.64,6.44a9.33,9.33,0,0,1-.08,1.16Zm7.28-1.78c0-1.58-.65-4-3.44-4-2.52,0-3.62,2.32-3.81,4ZM233,90.6c0,5.06-3.5,7.26-6.8,7.26-3.7,0-6.55-2.71-6.55-7,0-4.57,3-7.26,6.77-7.26C230.35,83.57,233,86.43,233,90.6Zm-10.84.15c0,3,1.72,5.25,4.15,5.25s4.15-2.23,4.15-5.31c0-2.32-1.16-5.25-4.09-5.25S222.16,88.15,222.16,90.75Zm14.23,6.8V85.78h-1.92v-1.9h1.92v-.65A6.44,6.44,0,0,1,238,78.46a4.76,4.76,0,0,1,3.33-1.27,5.7,5.7,0,0,1,2.12.4l-.34,1.92a3.73,3.73,0,0,0-1.58-.31c-2.12,0-2.66,1.86-2.66,4v.73h3.31v1.9h-3.31V97.55Zm16-6-2,6h-2.54l6.47-19h3l6.5,19h-2.63l-2-6Zm6.24-1.92-1.86-5.48c-.43-1.24-.71-2.37-1-3.47h-.06c-.28,1.13-.59,2.28-1,3.44l-1.86,5.51Zm19.31-5.76c0,1-.11,2.09-.11,3.75v7.94c0,3.13-.62,5-2,6.24a7.26,7.26,0,0,1-5,1.63,8.76,8.76,0,0,1-4.54-1.13l.62-1.89a7.63,7.63,0,0,0,4,1.08c2.54,0,4.4-1.33,4.4-4.78V95.19h-.06A4.86,4.86,0,0,1,271,97.48c-3.39,0-5.82-2.88-5.82-6.67,0-4.63,3-7.25,6.16-7.25a4.54,4.54,0,0,1,4.26,2.37h.06l.11-2.06Zm-2.57,5.39a3.65,3.65,0,0,0-.14-1.13,3.57,3.57,0,0,0-3.47-2.63c-2.37,0-4.07,2-4.07,5.17,0,2.68,1.36,4.92,4,4.92A3.65,3.65,0,0,0,275.14,93a4.3,4.3,0,0,0,.19-1.32Zm6.41-1.13c0-1.61,0-3-.11-4.26h2.17l.09,2.68H284a4.09,4.09,0,0,1,3.78-3,2.57,2.57,0,0,1,.71.08V86a3.41,3.41,0,0,0-4.18,3.1,6.63,6.63,0,0,0-.11,1.16v7.28h-2.46ZM293.85,80a1.54,1.54,0,0,1-3.07,0,1.51,1.51,0,0,1,1.55-1.56A1.48,1.48,0,0,1,293.85,80Zm-2.76,17.5V83.87h2.48V97.53Zm16.34-.5a9.29,9.29,0,0,1-3.92.79c-4.12,0-6.81-2.8-6.81-7a7,7,0,0,1,7.35-7.26,8.29,8.29,0,0,1,3.44.71l-.57,1.92a5.71,5.71,0,0,0-2.87-.65c-3.14,0-4.83,2.32-4.83,5.17,0,3.16,2,5.11,4.74,5.11a7.09,7.09,0,0,0,3.05-.68Zm14.35-3.22c0,1.41,0,2.65.11,3.72h-2.2l-.14-2.23h-.06A5.15,5.15,0,0,1,315,97.84c-2.15,0-4.71-1.18-4.71-6v-8h2.48v7.57c0,2.59.79,4.34,3.05,4.34a3.58,3.58,0,0,0,3.27-2.26,3.42,3.42,0,0,0,.23-1.27V83.87h2.49Zm4.12-16.32h2.48v20H325.9Zm9.65,2.45v3.93h3.56v1.89h-3.56v7.37c0,1.69.48,2.65,1.87,2.65a5.41,5.41,0,0,0,1.44-.17l.11,1.87a6.24,6.24,0,0,1-2.2.34,3.46,3.46,0,0,1-2.69-1,5.09,5.09,0,0,1-1-3.56V85.76H331V83.87h2.11V80.59Zm17.79,13.87c0,1.41,0,2.65.11,3.72h-2.2l-.14-2.23h-.06a5.15,5.15,0,0,1-4.52,2.54c-2.14,0-4.71-1.18-4.71-6v-8h2.48v7.57c0,2.59.79,4.34,3.05,4.34a3.6,3.6,0,0,0,3.28-2.26,3.64,3.64,0,0,0,.22-1.27V83.87h2.49Zm4.12-5.68c0-1.61,0-3-.11-4.26h2.17l.09,2.68h.11a4.09,4.09,0,0,1,3.78-3,2.62,2.62,0,0,1,.71.08V86a3.57,3.57,0,0,0-.85-.09A3.49,3.49,0,0,0,360,89.09a6.63,6.63,0,0,0-.11,1.16v7.28h-2.46Zm16.66,9.4-.2-1.72h-.09a5.09,5.09,0,0,1-4.17,2,3.89,3.89,0,0,1-4.18-3.92c0-3.3,2.93-5.11,8.21-5.08v-.29a2.82,2.82,0,0,0-3.1-3.16,6.83,6.83,0,0,0-3.56,1l-.56-1.64A8.46,8.46,0,0,1,371,83.56c4.18,0,5.2,2.85,5.2,5.59v5.11a19.12,19.12,0,0,0,.23,3.27Zm-.37-7C371,90.5,368,91,368,93.64A2.19,2.19,0,0,0,370.3,96a3.41,3.41,0,0,0,3.31-2.29,2.74,2.74,0,0,0,.14-.79Zm6.41-13.07h2.48v20h-2.48Zm12.39,17.05A8.68,8.68,0,0,0,397,95.78c2.51,0,4-1.32,4-3.25,0-1.77-1-2.79-3.59-3.78-3.1-1.1-5-2.71-5-5.39,0-3,2.45-5.17,6.15-5.17a8.67,8.67,0,0,1,4.21.93l-.68,2a7.56,7.56,0,0,0-3.61-.9c-2.6,0-3.59,1.55-3.59,2.85,0,1.77,1.16,2.65,3.78,3.67,3.22,1.24,4.86,2.79,4.86,5.59s-2.17,5.48-6.66,5.48a9.82,9.82,0,0,1-4.86-1.22ZM416.64,97a9.3,9.3,0,0,1-3.93.79c-4.12,0-6.8-2.8-6.8-7a7,7,0,0,1,7.34-7.26,8.22,8.22,0,0,1,3.44.71l-.56,1.92a5.76,5.76,0,0,0-2.88-.65c-3.14,0-4.83,2.32-4.83,5.17,0,3.16,2,5.11,4.74,5.11a7,7,0,0,0,3-.68Zm5.67-17a1.54,1.54,0,0,1-3.08,0,1.52,1.52,0,0,1,1.56-1.56A1.48,1.48,0,0,1,422.31,80Zm-2.77,17.5V83.87H422V97.53Zm8-6.38c.06,3.36,2.21,4.75,4.69,4.75a8.87,8.87,0,0,0,3.78-.71l.43,1.78a11.17,11.17,0,0,1-4.55.85c-4.2,0-6.72-2.77-6.72-6.89s2.43-7.37,6.41-7.37c4.46,0,5.65,3.92,5.65,6.43a8.78,8.78,0,0,1-.09,1.16Zm7.29-1.78c0-1.58-.65-4-3.45-4-2.51,0-3.61,2.31-3.81,4Zm5.47-1.8c0-1.42,0-2.57-.11-3.7h2.2l.15,2.26h.05a5,5,0,0,1,4.52-2.57c1.89,0,4.83,1.13,4.83,5.81v8.16h-2.49V89.66c0-2.21-.82-4-3.16-4A3.53,3.53,0,0,0,443,88.16a3.64,3.64,0,0,0-.17,1.16v8.21h-2.49ZM465.71,97a9.3,9.3,0,0,1-3.93.79c-4.12,0-6.8-2.8-6.8-7a7,7,0,0,1,7.34-7.26,8.29,8.29,0,0,1,3.44.71l-.56,1.92a5.78,5.78,0,0,0-2.88-.65c-3.14,0-4.83,2.32-4.83,5.17,0,3.16,2,5.11,4.74,5.11a7.05,7.05,0,0,0,3-.68Zm4.12-5.88c.05,3.36,2.2,4.75,4.68,4.75a9,9,0,0,0,3.79-.71l.42,1.78a11.17,11.17,0,0,1-4.55.85c-4.2,0-6.72-2.77-6.72-6.89s2.43-7.37,6.41-7.37c4.46,0,5.65,3.92,5.65,6.43a8.78,8.78,0,0,1-.09,1.16Zm7.28-1.78c0-1.58-.65-4-3.45-4-2.51,0-3.61,2.31-3.81,4ZM482.25,95a6.49,6.49,0,0,0,3.27,1c1.81,0,2.66-.9,2.66-2s-.71-1.84-2.54-2.51c-2.46-.88-3.62-2.24-3.62-3.87,0-2.21,1.78-4,4.72-4a6.88,6.88,0,0,1,3.36.84l-.62,1.81a5.34,5.34,0,0,0-2.8-.79c-1.47,0-2.29.85-2.29,1.86s.82,1.64,2.6,2.32c2.37.9,3.59,2.09,3.59,4.12,0,2.4-1.87,4.1-5.11,4.1a7.73,7.73,0,0,1-3.84-.94Zm-355-49.43H124.9V42.08h10.95c5.76,0,8.77,3,8.77,7.33,0,5.11-4,7.33-8.77,7.33h-3.62v5.72h2.35v3.48H124.9V62.46h2.35Zm8.09,7.7c2.49,0,4.11-1.43,4.11-3.85,0-2.19-1.42-3.85-4.18-3.85h-3v7.7ZM150.7,58.1c.14,2.83,2.32,4.57,5.66,4.57a13.45,13.45,0,0,0,5.52-1.13v3.68a16.25,16.25,0,0,1-6.58,1.13c-6.88,0-9.78-4.3-9.78-9.24,0-5.55,3.38-9.4,9-9.4,6.14,0,8.63,4.63,8.63,10.39Zm7.23-3.27c0-2.45-1.4-3.85-3.62-3.85s-3.44,1.43-3.64,3.85ZM282.8,58.1c.14,2.83,2.32,4.57,5.66,4.57A13.45,13.45,0,0,0,294,61.54v3.68a16.29,16.29,0,0,1-6.58,1.13c-6.88,0-9.78-4.3-9.78-9.24,0-5.55,3.37-9.4,9-9.4,6.14,0,8.62,4.63,8.62,10.39ZM290,54.83c0-2.45-1.39-3.85-3.61-3.85s-3.44,1.43-3.64,3.85ZM167.53,51.59h-2.32V48.12h6.55l.13,2.33H172a6.24,6.24,0,0,1,5.47-2.74c4.53,0,6.9,3.18,6.9,7.1v7.65h2v3.48h-8.75V62.46h1.94V55.64c0-2.49-1.38-3.84-3.64-3.84-2,0-3.62,1.14-3.62,3.84v6.82h2v3.48h-8.75V62.46h1.94Zm23.24,0h-2.32V48.12H195l.13,2.33h.07a6.27,6.27,0,0,1,5.48-2.74c4.52,0,6.9,3.18,6.9,7.1v7.65h2v3.48h-8.76V62.46h2V55.64c0-2.49-1.38-3.84-3.65-3.84-2,0-3.61,1.14-3.61,3.84v6.82h2v3.48h-8.76V62.46h2Zm76.06-7.29h4.77v3.82h4.77v3.47H271.6v7.94c0,2.39.84,3.14,2.81,3.14a13.06,13.06,0,0,0,2.13-.27v3.38a15.33,15.33,0,0,1-3.93.57c-3.51,0-5.78-1.89-5.78-5V51.59h-2.42V48.12h2.42Zm-32.15,0h4.77v3.82h4.77v3.47h-4.77v7.94c0,2.39.84,3.14,2.81,3.14a13.06,13.06,0,0,0,2.13-.27v3.38a15.33,15.33,0,0,1-3.93.57c-3.51,0-5.78-1.89-5.78-5V51.59h-2.42V48.12h2.42Zm22.65,10.29c0-2.46-1.19-3.41-3.6-3.41a8.77,8.77,0,0,0-3,.51v2.39h-3.86V49.55a14.77,14.77,0,0,1,6.76-1.84c5,0,8.16,2,8.16,7v7.74h1.84v3.48H257.9l-.14-2.43h-.07c-.35.5-1.65,2.84-5.67,2.84s-6-2.39-6-5.18c0-3.39,2.61-5.73,9.14-5.73h2.14Zm-1.39,3.78c-3.89,0-5.11.82-5.11,2.36,0,1.05.74,2.14,2.62,2.14s3.82-1.49,3.82-4.5ZM225.07,45.73a10.22,10.22,0,0,0-3-.58c-2.77,0-3.88,1.51-3.88,2.84,0,1.73,1.29,2.54,2.78,2.91l2.37.62c3.33.89,7,2.31,7,7.25,0,4.53-2.91,7.58-9.35,7.58A23.68,23.68,0,0,1,212.84,65V58.71h4.28v3.08a18,18,0,0,0,4.27.67c2.53,0,3.75-1.05,3.75-2.86,0-1.49-.84-2.57-3.89-3.39l-2-.56c-4.67-1.26-6.25-3.51-6.25-7.19s2.52-6.79,8.93-6.79a20.85,20.85,0,0,1,7.45,1.27v5.69h-4.28Z" transform="translate(-33.68 -33.25)"/></svg>